<?xml version="1.0" encoding="UTF-8"?>
<svg width="107px" height="107px" viewBox="0 0 107 107" version="1.1" xmlns="http://www.w3.org/2000/svg" xmlns:xlink="http://www.w3.org/1999/xlink">
    <title>Slice 1</title>
    <g id="Page-1" stroke="none" stroke-width="1" fill="none" fill-rule="evenodd">
        <g id="swift" transform="translate(0.200000, 1.000000)" fill-rule="nonzero">
            <path d="M105.9,29.3 C105.9,28.2 105.9,27.2 105.9,26.1 C105.8,23.8 105.7,21.4 105.3,19.1 C104.9,16.8 104.2,14.6 103.1,12.5 C102,10.4 100.7,8.5 99,6.9 C97.3,5.2 95.4,3.9 93.4,2.8 C91.3,1.7 89.1,1 86.8,0.6 C84.5,0.2 82.2,0 79.8,0 C78.7,0 77.7,0 76.6,0 C75.3,0 74.1,0 72.8,0 L44.7,0 L33.1,0 C31.8,0 30.6,0 29.3,0 C28.2,0 27.2,0 26.1,0 C25.5,0 24.9,0 24.4,0.1 C22.7,0.2 20.9,0.3 19.2,0.6 C17.5,0.9 15.8,1.4 14.2,2 C13.7,2.2 13.1,2.5 12.6,2.7 C11,3.5 9.6,4.5 8.2,5.6 C7.8,6 7.3,6.4 6.9,6.8 C5.2,8.5 3.9,10.4 2.8,12.4 C1.7,14.5 1,16.7 0.6,19 C0.2,21.3 0.1,23.6 0,26 C0,27.1 0,28.1 0,29.2 C0,30.5 0,31.7 0,33 L0,50.3 L0,72.7 C0,74 0,75.2 0,76.5 C0,77.6 0,78.6 0,79.7 C0.1,82 0.2,84.4 0.6,86.7 C1,89 1.7,91.2 2.8,93.3 C3.9,95.4 5.2,97.3 6.9,98.9 C8.6,100.6 10.5,101.9 12.5,103 C14.6,104.1 16.8,104.8 19.1,105.2 C21.4,105.6 23.7,105.8 26.1,105.8 C27.2,105.8 28.2,105.8 29.3,105.8 C30.6,105.8 31.8,105.8 33.1,105.8 L72.8,105.8 C74.1,105.8 75.3,105.8 76.6,105.8 C77.7,105.8 78.7,105.8 79.8,105.8 C82.1,105.7 84.5,105.6 86.8,105.2 C89.1,104.8 91.3,104.1 93.4,103 C95.5,101.9 97.4,100.6 99,98.9 C100.7,97.2 102,95.3 103.1,93.3 C104.2,91.2 104.9,89 105.3,86.7 C105.7,84.4 105.9,82.1 105.9,79.7 C105.9,78.6 105.9,77.6 105.9,76.5 C105.9,75.2 105.9,74 105.9,72.7 L105.9,33 C105.9,31.8 105.9,30.6 105.9,29.3 Z" id="Path" fill="#F05138"></path>
            <path d="M83.8,65.4 C83.9,65 84,64.6 84.1,64.2 C88.5,46.7 77.8,25.9 59.6,15 C67.6,25.8 71.1,38.9 68,50.3 C67.7,51.3 67.4,52.3 67,53.3 C66.6,53 66.1,52.7 65.4,52.4 C65.4,52.4 47.3,41.2 27.7,21.5 C27.2,21 38.2,37.2 50.6,50.3 C44.7,47 28.4,35.1 18,25.7 C19.3,27.8 20.8,29.9 22.4,31.8 C31,42.8 42.3,56.3 55.8,66.7 C46.3,72.5 32.9,73 19.6,66.7 C16.3,65.2 13.2,63.3 10.3,61.2 C15.9,70.2 24.6,78 35.2,82.6 C47.8,88 60.4,87.7 69.7,82.7 L69.7,82.7 C69.7,82.7 69.8,82.7 69.8,82.6 C70.2,82.4 70.6,82.1 71,81.9 C75.5,79.6 84.3,77.3 89.1,86.5 C90.5,88.6 93,76.6 83.8,65.4 C83.8,65.4 83.8,65.4 83.8,65.4 Z" id="Path" fill="#FFFFFF"></path>
        </g>
    </g>
</svg>