<?xml version="1.0" encoding="UTF-8"?>
<svg width="26px" height="26px" viewBox="0 0 26 26" version="1.1" xmlns="http://www.w3.org/2000/svg" xmlns:xlink="http://www.w3.org/1999/xlink">
    <title>Slice 1</title>
    <defs>
        <linearGradient x1="50.048061%" y1="100%" x2="50.048061%" y2="0%" id="linearGradient-1">
            <stop stop-color="#0052CC" offset="0%"></stop>
            <stop stop-color="#2684FF" offset="100%"></stop>
        </linearGradient>
    </defs>
    <g id="Page-1" stroke="none" stroke-width="1" fill="none" fill-rule="evenodd">
        <g id="trello" transform="translate(0.234158, 0.028269)" fill="url(#linearGradient-1)" fill-rule="nonzero">
            <path d="M22.2156494,0 L2.99661094,0 C1.34324428,0 0.00230073457,1.33913484 2.37947866e-05,2.9925 L2.37947866e-05,22.1832692 C-0.00314922582,22.9800977 0.31113377,23.7453951 0.873443306,24.3099782 C1.43575285,24.8745612 2.19977594,25.1919231 2.99661094,25.1919231 L22.2156494,25.1919231 C23.0117843,25.1908566 23.7747684,24.873015 24.336204,24.3085487 C24.8976395,23.7440825 25.211369,22.9793984 25.2081981,22.1832692 L25.2081981,2.9925 C25.2059248,1.34071024 23.8674392,0.002224635 22.2156494,0 Z M10.8716109,18.1448077 C10.8705457,18.4111369 10.7634455,18.6660738 10.5739875,18.8532583 C10.3845295,19.0404429 10.1283182,19.1444576 9.86199555,19.1423721 L5.66199555,19.1423721 C5.11266928,19.1400837 4.66853402,18.6941385 4.66853402,18.1448077 L4.66853402,5.64576923 C4.66853402,5.09643847 5.11266928,4.65049325 5.66199555,4.64826923 L9.86199555,4.64826923 C10.4119802,4.65048247 10.8572823,5.09578456 10.8594956,5.64576923 L10.8716109,18.1448077 Z M20.5639186,12.4061538 C20.5639186,12.6728198 20.4571834,12.9283913 20.2674873,13.1158111 C20.0777912,13.3032308 19.8209496,13.4068927 19.5543032,13.4037979 L15.3543032,13.4037979 C14.8043186,13.4014406 14.3590165,12.9561385 14.3568032,12.4061538 L14.3568032,5.64576923 C14.3590165,5.09578456 14.8043186,4.65048247 15.3543032,4.64826923 L19.5543032,4.64826923 C20.1036295,4.65049325 20.5477693,5.09643847 20.5477648,5.64576923 L20.5639186,12.4061538 Z" id="Shape"></path>
        </g>
    </g>
</svg>