<?xml version="1.0" encoding="UTF-8"?>
<svg width="256px" height="249px" viewBox="0 0 256 249" version="1.1" xmlns="http://www.w3.org/2000/svg" xmlns:xlink="http://www.w3.org/1999/xlink">
    <title>Slice 1</title>
    <g id="Page-1" stroke="none" stroke-width="1" fill="none" fill-rule="evenodd">
        <g id="fastlane-seeklogo.com" transform="translate(0.000030, 0.999633)" fill-rule="nonzero">
            <path d="M216.43067,65.9672667 C205.72967,65.9672667 196.02867,70.2222667 188.90667,77.1232667 L143.74467,44.7842667 C144.02667,43.6032667 144.19167,42.3772667 144.19167,41.1092667 C144.19167,32.3682667 137.10567,25.2812667 128.36367,25.2812667 C119.62267,25.2812667 112.53567,32.3682667 112.53567,41.1092667 C112.53567,49.8512667 119.62267,56.9372667 128.36367,56.9372667 C131.42467,56.9372667 134.27267,56.0532667 136.69467,54.5492667 L191.97867,94.7812667 C196.28867,85.7912667 205.79467,78.7912667 216.43067,78.7912667 C231.20167,78.7912667 243.17667,90.7652667 243.17667,105.536267 C243.17667,117.340267 235.52967,127.358267 224.91967,130.906267 L228.54867,143.215267 C244.47467,138.097267 255.99967,123.163267 255.99967,105.536267 C255.99967,83.6832667 238.28467,65.9672667 216.43067,65.9672667" id="Path" fill="#0A7BFF"></path>
            <path d="M89.5648697,27.5297667 C86.3338697,37.7017667 87.4488697,48.2097667 91.8578697,57.0647667 L47.4778697,90.2307667 C46.4398697,89.6067667 45.3238697,89.0797667 44.1188697,88.6967667 C35.8088697,86.0567667 26.9318697,90.6537667 24.2928697,98.9637667 C21.6528697,107.273767 26.2498697,116.150767 34.5588697,118.789767 C42.8688697,121.429767 51.7458697,116.833767 54.3858697,108.523767 C55.3098697,105.613767 55.3298697,102.639767 54.6308697,99.8837667 L109.57287,59.4767667 C102.32787,52.6647667 98.5438697,41.5137667 101.75487,31.4027667 C106.21587,17.3607667 121.21587,9.59276666 135.25787,14.0537667 C146.47887,17.6177667 153.69287,27.9127667 153.86287,39.0707667 L166.65987,39.3377667 C166.60387,22.6527667 155.88687,7.18576666 139.12987,1.86276666 C118.35587,-4.73623334 96.1638697,6.75476666 89.5648697,27.5297667" id="Path" fill="#EB3D00"></path>
            <path d="M16.2641697,134.488267 C24.8741697,140.771267 35.1581697,143.071267 44.9081697,141.746267 L62.4161697,194.070267 C61.5021697,194.847267 60.6561697,195.729267 59.9171697,196.740267 C54.8271697,203.716267 56.4031697,213.532267 63.4371697,218.664267 C70.4711697,223.797267 80.2991697,222.302267 85.3891697,215.326267 C90.4801697,208.350267 88.9041697,198.535267 81.8701697,193.402267 C79.4071697,191.605267 76.6011697,190.638267 73.7771697,190.417267 L52.7181697,125.850267 C44.0151697,130.494267 32.2901697,130.499267 23.7311697,124.254267 C11.8461697,115.581267 9.18316973,98.9952667 17.7841697,87.2072667 C24.6581697,77.7872667 36.6441697,74.2822667 47.2471697,77.6792667 L51.4951697,65.7262667 C35.7001697,60.4592667 17.7291697,65.6112667 7.46516973,79.6772667 C-5.25983027,97.1172667 -1.32083027,121.657267 16.2641697,134.488267" id="Path" fill="#00BCD4"></path>
            <path d="M218.84907,195.979967 C215.58907,185.889967 208.60007,178.043967 199.89007,173.440967 L216.78607,120.950967 C217.99107,120.854967 219.20407,120.634967 220.40507,120.246967 C228.69107,117.569967 233.24907,108.716967 230.58707,100.474967 C227.92407,92.2309667 219.04807,87.7189667 210.76207,90.3959667 C202.47607,93.0719667 197.91707,101.924967 200.58007,110.167967 C201.51307,113.053967 203.21807,115.468967 205.38107,117.291967 L184.08707,181.745967 C193.92207,183.056967 203.45307,189.876967 206.69307,199.906967 C211.19307,213.835967 203.49007,228.794967 189.48907,233.317967 C178.30007,236.932967 166.47407,232.789967 159.87907,223.870967 L149.31607,231.062967 C159.01907,244.512967 176.68707,250.808967 193.39507,245.410967 C214.11007,238.718967 225.50607,216.587967 218.84907,195.979967" id="Path" fill="#86C351"></path>
            <path d="M96.2728697,238.320767 C104.85687,232.039767 110.14287,222.932767 111.80587,213.215767 L167.01787,212.652767 C167.48587,213.764767 168.07287,214.845767 168.81687,215.862767 C173.94787,222.875767 183.79187,224.400767 190.80487,219.270767 C197.81787,214.139767 199.34287,204.295767 194.21287,197.282767 C189.08187,190.269767 179.23787,188.743767 172.22487,193.874767 C169.76987,195.671767 168.00287,198.050767 166.94287,200.679767 L98.9768697,200.852767 C100.79587,210.594767 97.2788697,221.789767 88.7458697,228.032767 C76.8958697,236.702767 60.2608697,234.124767 51.5908697,222.274767 C44.6628697,212.804767 44.9178697,200.279767 51.3458697,191.205767 L41.2098697,183.460767 C31.4378697,196.913767 30.9578697,215.659767 41.3028697,229.800767 C54.1298697,247.333767 78.7408697,251.147767 96.2728697,238.320767" id="Path" fill="#9032E9"></path>
        </g>
    </g>
</svg>