<?xml version="1.0" encoding="UTF-8"?>
<svg width="31px" height="30px" viewBox="0 0 31 30" version="1.1" xmlns="http://www.w3.org/2000/svg" xmlns:xlink="http://www.w3.org/1999/xlink">
    <title>Slice 1</title>
    <g id="Page-1" stroke="none" stroke-width="1" fill="none" fill-rule="evenodd">
        <g id="udacity" transform="translate(1.000000, 0.000000)" fill="#02B3E4" fill-rule="nonzero">
            <path d="M29,0.5 L30,1 L30,14 C30,19.551887 27.1103,22.695692 24.004784,24.099885 L24.0094,24.1 L16.388437,28.488562 C16.329667,28.523122 16.270677,28.557089 16.21148,28.590464 L16.12506,28.640228 L16.126866,28.637688 C14.48289,29.545895 12.684682,30 11,30 C6,30 0,26 0,18 L0,6 L2,7 L2,18 C2,26 8,28 11,28 C12.858706,28 15.86901,27.23227 17.89043,24.745483 C14.181726,23.872636 10,20.678703 10,14 L10,2.2 L2,7 L0,6 L10,0 L11,0.5 L12,1 L12,14 C12,20.939958 16.515283,22.612086 19.017542,22.933368 C19.625786,21.62159 20,19.997902 20,18 L20,5 L22,6 L22,18 C22,19.852645 21.678223,21.49077 21.121605,22.91438 C23.648223,22.549217 28,20.813144 28,14 L28,2.25 L22,6 L20,5 L28,0 L29,0.5 Z" id="Path"></path>
        </g>
    </g>
</svg>