<?xml version="1.0" encoding="UTF-8"?>
<svg width="64px" height="57px" viewBox="0 0 64 57" version="1.1" xmlns="http://www.w3.org/2000/svg" xmlns:xlink="http://www.w3.org/1999/xlink">
    <title>Slice 1</title>
    <defs>
        <linearGradient x1="108.63338%" y1="30.1117195%" x2="46.9265964%" y2="65.8174868%" id="linearGradient-1">
            <stop stop-color="#0052CC" offset="18%"></stop>
            <stop stop-color="#2684FF" offset="100%"></stop>
        </linearGradient>
    </defs>
    <g id="Page-1" stroke="none" stroke-width="1" fill="none" fill-rule="evenodd">
        <g id="bitbucket" transform="translate(0.974192, 0.259674)">
            <polygon id="Path" points="24.7258084 37.2503262 37.7758084 37.2503262 40.9258084 18.8603262 21.2558084 18.8603262"></polygon>
            <path d="M2.02580839,0.000159547187 C1.43497293,-0.00729411732 0.871007499,0.246738756 0.485195532,0.694280638 C0.0993835649,1.14182252 -0.0687822824,1.73706193 0.0258083933,2.32032621 L8.51580839,53.8603262 C8.73415849,55.1622215 9.85577483,56.1193904 11.1758084,56.1304942 L51.9058084,56.1304942 C52.896594,56.1430782 53.7473516,55.4284418 53.9058084,54.4503262 L62.3958084,2.33032621 C62.4903991,1.74706193 62.3222332,1.15182252 61.9364213,0.704280638 C61.5506093,0.256738756 60.9866439,0.00270588268 60.3958084,0.0103262076 L2.02580839,0.000159547187 Z M37.7758084,37.2503262 L24.7758084,37.2503262 L21.2558084,18.8603262 L40.9258084,18.8603262 L37.7758084,37.2503262 Z" id="Shape" fill="#2684FF" fill-rule="nonzero"></path>
            <path d="M59.6958084,18.8603262 L40.9258084,18.8603262 L37.7758084,37.2503262 L24.7758084,37.2503262 L9.42580839,55.4703262 C9.91233557,55.8910288 10.532636,56.1249707 11.1758084,56.1304942 L51.9158084,56.1304942 C52.906594,56.1430782 53.7573516,55.4284418 53.9158084,54.4503262 L59.6958084,18.8603262 Z" id="Path" fill="url(#linearGradient-1)" fill-rule="nonzero"></path>
        </g>
    </g>
</svg>