<?xml version="1.0" encoding="UTF-8"?>
<svg width="64px" height="61px" viewBox="0 0 64 61" version="1.1" xmlns="http://www.w3.org/2000/svg" xmlns:xlink="http://www.w3.org/1999/xlink">
    <title>Slice 1</title>
    <defs>
        <linearGradient x1="99.140087%" y1="65.7068123%" x2="33.8589812%" y2="46.9329228%" id="linearGradient-1">
            <stop stop-color="#0052CC" offset="18%"></stop>
            <stop stop-color="#2684FF" offset="100%"></stop>
        </linearGradient>
        <linearGradient x1="0.92569163%" y1="34.3043893%" x2="66.1800713%" y2="53.0862751%" id="linearGradient-2">
            <stop stop-color="#0052CC" offset="18%"></stop>
            <stop stop-color="#2684FF" offset="100%"></stop>
        </linearGradient>
    </defs>
    <g id="Page-1" stroke="none" stroke-width="1" fill="none" fill-rule="evenodd">
        <g id="confluence" transform="translate(0.950932, 0.428816)" fill-rule="nonzero">
            <path d="M2.27906819,46.1011836 C1.62906819,47.1611836 0.899068186,48.3911836 0.279068186,49.3711836 C-0.275879948,50.3089768 0.0220384235,51.5184364 0.949068186,52.0911836 L13.9490682,60.0911836 C14.4053949,60.3729275 14.9557559,60.4596002 15.4765881,60.3317424 C15.9974202,60.2038847 16.4450822,59.87221 16.7190682,59.4111836 C17.2390682,58.5411836 17.9090682,57.4111836 18.6390682,56.2011836 C23.7890682,47.7011836 28.9690682,48.7411836 38.3090682,53.2011836 L51.1990682,59.3311836 C51.6872581,59.5635481 52.2487271,59.58836 52.7555109,59.3999646 C53.2622948,59.2115691 53.6712126,58.8260186 53.8890682,58.3311836 L60.0790682,44.3311836 C60.5164018,43.331288 60.0714073,42.1654026 59.0790682,41.7111836 C56.3590682,40.4311836 50.9490682,37.8811836 46.0790682,35.5311836 C28.5590682,27.0211836 13.6690682,27.5711836 2.27906819,46.1011836 Z" id="Path" fill="url(#linearGradient-1)"></path>
            <path d="M60.5690682,14.3311836 C61.2190682,13.2711836 61.9490682,12.0411836 62.5690682,11.0611836 C63.1240163,10.1233904 62.8260979,8.91393074 61.8990682,8.34118358 L48.8990682,0.341183582 C48.4390181,0.0313252271 47.8709486,-0.0735647216 47.3305795,0.0515733891 C46.7902104,0.1767115 46.3260774,0.520637807 46.0490682,1.00118358 C45.5290682,1.87118358 44.8590682,3.00118358 44.1290682,4.21118358 C38.9790682,12.7111836 33.7990682,11.6711836 24.4590682,7.21118358 L11.6090682,1.11118358 C11.1208782,0.878819076 10.5594093,0.85400712 10.0526254,1.04240259 C9.54584161,1.23079807 9.13692377,1.61634861 8.91906819,2.11118358 L2.72906819,16.1111836 C2.29173461,17.1110792 2.73672905,18.2769646 3.72906819,18.7311836 C6.44906819,20.0111836 11.8590682,22.5611836 16.7290682,24.9111836 C34.2890682,33.4111836 49.1790682,32.8411836 60.5690682,14.3311836 Z" id="Path" fill="url(#linearGradient-2)"></path>
        </g>
    </g>
</svg>