<?xml version="1.0" encoding="UTF-8"?>
<svg width="95px" height="91px" viewBox="0 0 95 91" version="1.1" xmlns="http://www.w3.org/2000/svg" xmlns:xlink="http://www.w3.org/1999/xlink">
    <title>Slice 1</title>
    <g id="Page-1" stroke="none" stroke-width="1" fill="none" fill-rule="evenodd">
        <g id="jquery" transform="translate(0.000004, 0.208350)" fill="#0868AC" fill-rule="nonzero">
            <path d="M5.97849606,21.30065 C-2.35650394,33.28065 -1.31890394,48.86665 5.04831606,61.59565 C5.19969606,61.90083 5.35837606,62.20111 5.51462606,62.50141 C5.61474606,62.69184 5.70871606,62.88715 5.81247606,63.07514 C5.87109606,63.18739 5.93697606,63.2973 5.99802606,63.40473 C6.10664606,63.60736 6.21774606,63.80024 6.33004606,63.99799 C6.52780606,64.34711 6.73044606,64.69379 6.93795606,65.04049 C7.05270606,65.23091 7.16623606,65.42134 7.28464606,65.61177 C7.51413606,65.98286 7.74973606,66.34907 7.99020606,66.71527 C8.09032606,66.87152 8.18795606,67.02777 8.29049606,67.17913 C8.62253606,67.67474 8.96188606,68.1679 9.31219606,68.65373 C9.32089606,68.66623 9.33044606,68.68063 9.34144606,68.69273 C9.39644606,68.77083 9.45744606,68.84654 9.51356606,68.92467 C9.81630606,69.34214 10.1288061,69.75474 10.4449661,70.16247 C10.5609661,70.31139 10.6781161,70.46032 10.7953061,70.60924 C11.0772961,70.96325 11.3641561,71.31482 11.6559061,71.66634 C11.7645261,71.79818 11.8744061,71.93 11.9842661,72.0594 C12.3761161,72.52083 12.7752761,72.97981 13.1829661,73.429 C13.1904661,73.436 13.2000961,73.4461 13.2073361,73.4534 C13.2244661,73.4729 13.2390861,73.4851 13.2537061,73.5046 C13.6516561,73.93917 14.0593661,74.36397 14.4720061,74.7888 C14.6001661,74.92064 14.7307961,75.05248 14.8626261,75.18188 C15.1824461,75.50414 15.5071461,75.82153 15.8355261,76.13646 C15.9685761,76.26341 16.1004161,76.39281 16.2334761,76.51488 C16.6716961,76.92748 17.1148161,77.33275 17.5664761,77.72828 C17.5739761,77.73528 17.5798461,77.74078 17.5872261,77.74538 C17.6641061,77.81378 17.7434761,77.87722 17.8191661,77.94313 C18.2171161,78.28737 18.6223861,78.62917 19.0300661,78.96613 C19.1960761,79.10041 19.3645461,79.23225 19.5317761,79.36652 C19.8650261,79.63263 20.2019361,79.89631 20.5412761,80.1551 C20.7207261,80.29182 20.9001661,80.42853 21.0808361,80.56526 C21.4555861,80.84113 21.8327861,81.11213 22.2136361,81.37825 C22.3527861,81.47837 22.4870761,81.576 22.6262261,81.67121 C22.6652261,81.69811 22.7007261,81.72491 22.7397261,81.75181 C23.1010661,82.00083 23.4709261,82.24008 23.8396261,82.47935 C23.9983161,82.58435 24.1557861,82.69418 24.3157061,82.79672 C24.8821061,83.15561 25.4571061,83.50962 26.0381061,83.85142 C26.1955661,83.94182 26.3554861,84.02964 26.5141661,84.11998 C26.9414161,84.36656 27.3711061,84.60826 27.8068661,84.84508 C28.0424661,84.97203 28.2841661,85.09166 28.5222061,85.21373 C28.8298161,85.37486 29.1349961,85.53843 29.4474961,85.69468 C29.5182461,85.72898 29.5915461,85.76308 29.6611161,85.79718 C29.7868561,85.85818 29.9138061,85.91681 30.0395361,85.98029 C30.5241461,86.21223 31.0124361,86.43928 31.5056361,86.65901 C31.6106361,86.70541 31.7119361,86.75181 31.8156961,86.79817 C32.3808761,87.04474 32.9508961,87.28156 33.5258961,87.50862 C33.6638361,87.56472 33.8029961,87.61849 33.9421561,87.67218 C34.4743761,87.87727 35.0139561,88.07991 35.5559561,88.27033 C35.6243361,88.29473 35.6902461,88.31673 35.7585961,88.34103 C36.3530861,88.54856 36.9536961,88.74142 37.5578961,88.92941 C37.7019361,88.97091 37.8471961,89.01731 37.9924561,89.05881 C38.6076961,89.24436 39.2156561,89.46652 39.8503561,89.58371 C80.1603561,96.93481 91.8693561,65.35971 91.8693561,65.35971 C82.0353561,78.17171 64.5793561,81.55071 48.0403561,77.78871 C47.4141361,77.64711 46.8062561,77.4518 46.1946561,77.27113 C46.0396161,77.22473 45.8870361,77.17843 45.7344461,77.13197 C45.1375261,76.94887 44.5454461,76.756 43.9571461,76.55336 C43.8765261,76.52416 43.7947861,76.49476 43.7129961,76.46546 C43.1856561,76.27991 42.6643961,76.0846 42.1455961,75.88441 C41.9991061,75.82581 41.8526161,75.76966 41.7061461,75.71107 C41.1372961,75.48646 40.5721461,75.25208 40.0142461,75.00795 C39.8994961,74.95905 39.7896361,74.90782 39.6761061,74.85901 C39.1963661,74.64173 38.7215161,74.42201 38.2491061,74.19495 C38.1123961,74.12905 37.9756661,74.06556 37.8365061,73.9972 C37.4655061,73.8162 37.0985061,73.6232 36.7325061,73.4352 C36.4875061,73.3062 36.2385061,73.1842 35.9955061,73.0492 C35.5485061,72.8102 35.1095061,72.5612 34.6725061,72.3072 C34.5245061,72.2242 34.3745061,72.1442 34.2255061,72.0582 C33.6445061,71.7162 33.0705061,71.3622 32.5025061,71.0032 C32.3455061,70.9032 32.1925061,70.7962 32.0375061,70.6932 C31.6255061,70.4272 31.2155061,70.1562 30.8115061,69.8782 C30.6775061,69.7872 30.5485061,69.6902 30.4165061,69.6002 C30.0265061,69.3242 29.6405061,69.0452 29.2575061,68.7622 C29.0835061,68.6332 28.9125061,68.5032 28.7435061,68.3742 C28.3925061,68.1052 28.0435061,67.8342 27.6975061,67.5562 C27.5412561,67.4317 27.3850061,67.30718 27.2311961,67.18266 C26.7917461,66.82134 26.3571761,66.45756 25.9286961,66.08406 C25.8835761,66.04506 25.8346961,66.00596 25.7858761,65.96443 C25.3220161,65.55672 24.8666861,65.13923 24.4162761,64.71933 C24.2856561,64.59483 24.1586961,64.47274 24.0305261,64.34823 C23.6972761,64.03085 23.3689161,63.71103 23.0466361,63.38388 C22.9172461,63.25448 22.7878461,63.12753 22.6608961,62.99813 C22.2507461,62.57822 21.8479061,62.1534 21.4535961,61.72133 C21.4340961,61.69933 21.4133461,61.67983 21.3938461,61.65783 C20.9763561,61.20128 20.5686461,60.73498 20.1694461,60.26383 C20.0608261,60.13444 19.9558261,60.00993 19.8483961,59.88298 C19.5505461,59.52409 19.2551361,59.16032 18.9670461,58.79408 C18.8590461,58.66208 18.7510461,58.52708 18.6440461,58.39108 C18.2970461,57.94108 17.9580461,57.49208 17.6260461,57.03608 C8.44374606,44.51108 5.14504606,27.23608 12.4840461,13.04908" id="Path"></path>
            <path d="M31.8519961,11.20765 C25.8241961,19.88195 26.1512961,31.49365 30.8534561,40.66765 C31.6420361,42.20575 32.5282561,43.69745 33.5194561,45.11835 C34.4227661,46.41225 35.4237561,47.95285 36.6224561,48.99285 C37.0570361,49.47137 37.5111361,49.93767 37.9749561,50.39665 C38.0920761,50.51628 38.2117661,50.63103 38.3314061,50.74822 C38.7818461,51.18523 39.2396061,51.61492 39.7132061,52.03242 C39.7327061,52.04702 39.7498361,52.06652 39.7693361,52.08132 C39.7743361,52.08632 39.7793361,52.08832 39.7827061,52.09382 C40.3063861,52.55281 40.8471061,52.99471 41.3965061,53.42922 C41.5186261,53.52192 41.6394261,53.61966 41.7627161,53.71487 C42.3132561,54.13724 42.8748161,54.55227 43.4509161,54.94777 C43.4680461,54.96027 43.4826661,54.97217 43.4997961,54.98437 C43.7537061,55.16015 44.0124961,55.32373 44.2700561,55.49218 C44.3933061,55.57278 44.5105461,55.6582 44.6350561,55.73388 C45.0464361,55.99755 45.4626761,56.2539 45.8862561,56.50048 C45.9461261,56.53708 46.0046361,56.56888 46.0632561,56.60298 C46.4282561,56.81293 46.7981161,57.02045 47.1692561,57.22065 C47.2986461,57.29385 47.4304761,57.35737 47.5623161,57.42573 C47.8186661,57.56 48.0750161,57.69673 48.3362361,57.82612 C48.3752361,57.84562 48.4156061,57.86272 48.4533561,57.87992 C48.9843661,58.14114 49.5202561,58.39262 50.0671561,58.63187 C50.1842761,58.68317 50.3051961,58.72947 50.4235961,58.77835 C50.8606061,58.9639 51.3025061,59.14457 51.7467961,59.31547 C51.9347861,59.38627 52.1252061,59.45463 52.3131961,59.52298 C52.7160361,59.6719 53.1200861,59.80863 53.5277961,59.94534 C53.7121161,60.00394 53.8927961,60.06497 54.0771161,60.12113 C54.6569361,60.30179 55.2294161,60.52884 55.8337161,60.62894 C86.9567161,65.78514 94.1417161,41.82294 94.1417161,41.82294 C87.6647161,51.15154 75.1217161,55.60194 61.7367161,52.12794 C61.1422261,51.97169 60.5563161,51.80079 59.9740161,51.61767 C59.7957961,51.56397 59.6212261,51.50542 59.4442261,51.44679 C59.0304161,51.3125 58.6190361,51.1709 58.2113261,51.02197 C58.0245661,50.95357 57.8378061,50.88526 57.6546861,50.81446 C57.2079061,50.64356 56.7660061,50.46534 56.3277861,50.27979 C56.2081661,50.22849 56.0872961,50.18219 55.9701061,50.12842 C55.4207961,49.88916 54.8800061,49.6377 54.3466061,49.37402 C54.0719461,49.23975 53.8021661,49.09815 53.5323961,48.95899 C53.3761461,48.87849 53.2186761,48.79786 53.0624161,48.71729 C52.7157361,48.5293 52.3715061,48.33399 52.0321161,48.13624 C51.9516161,48.08984 51.8673261,48.04584 51.7855361,47.99707 C51.3643861,47.75049 50.9493461,47.49659 50.5379361,47.23536 C50.4109861,47.15476 50.2889161,47.0669 50.1619561,46.98389 C49.8909561,46.80811 49.6199661,46.62989 49.3538561,46.44922 C48.7801161,46.05371 48.2222561,45.63867 47.6717561,45.21872 C47.5448061,45.11859 47.4178561,45.02097 47.2933461,44.92087 C41.4343461,40.29487 36.7903461,33.97387 34.5823461,26.80587 C32.2683461,19.37187 32.7673461,11.02687 36.7763461,4.25487" id="Path"></path>
            <path d="M53.6129961,3.66665 C50.0594961,8.89615 49.7103961,15.39065 52.1761961,21.16665 C54.7762961,27.29705 60.1046961,32.10665 66.3231961,34.38665 C66.5795461,34.48195 66.8358961,34.56731 67.0959061,34.6552 C67.2094061,34.6894 67.3217261,34.7285 67.4364861,34.76257 C67.8026961,34.87732 68.1664661,35.0116 68.5448861,35.0824 C85.7298861,38.4027 90.3908861,26.264 91.6318861,24.4774 C87.5486861,30.3563 80.6868861,31.7674 72.2678861,29.724 C71.6028861,29.562 70.8718861,29.322 70.2308861,29.095 C69.4088861,28.802 68.5988861,28.468 67.8118861,28.09 C66.3168861,27.372 64.8918861,26.5 63.5708861,25.502 C56.0368861,19.786 51.3568861,8.881 56.2728861,3.55271368e-15" id="Path"></path>
        </g>
    </g>
</svg>