<?xml version="1.0" encoding="UTF-8"?>
<svg width="114px" height="115px" viewBox="0 0 114 115" version="1.1" xmlns="http://www.w3.org/2000/svg" xmlns:xlink="http://www.w3.org/1999/xlink">
    <title>Slice 1</title>
    <g id="Page-1" stroke="none" stroke-width="1" fill="none" fill-rule="evenodd">
        <g id="git" transform="translate(0.000125, 0.089500)" fill="#F05133" fill-rule="nonzero">
            <path d="M111.779875,51.8875 L62.034875,2.1486 C59.172675,-0.7162 54.526675,-0.7162 51.660875,2.1486 L41.331875,12.4786 L54.433875,25.5806 C57.479775,24.5522 60.970975,25.24172 63.397775,27.669 C65.837175,30.1114 66.521775,33.6324 65.467575,36.6885 L78.095575,49.3165 C81.150675,48.2637 84.675575,48.94388 87.115075,51.3877 C90.525675,54.7973 90.525675,60.3222 87.115075,63.7327 C83.703975,67.1443 78.179075,67.1443 74.766075,63.7327 C72.201575,61.1662 71.567275,57.3982 72.866175,54.2385 L61.089175,42.4615 L61.088175,73.4525 C61.919675,73.86412 62.704375,74.4135 63.397275,75.1034 C66.806875,78.5126 66.806875,84.0365 63.397275,87.4514 C59.986675,90.8605 54.459275,90.8605 51.052275,87.4514 C47.642175,84.0368 47.642175,78.5129 51.052275,75.1034 C51.895025,74.26215 52.870175,73.6254 53.910675,73.1986 L53.910675,41.9196 C52.869675,41.4946 51.895675,40.8626 51.051675,40.0146 C48.468675,37.4336 47.846575,33.6426 49.171275,30.4707 L36.255275,17.5527 L2.149275,51.6577 C-0.716425,54.5247 -0.716425,59.1707 2.149275,62.0357 L51.891275,111.7747 C54.755075,114.6395 59.399475,114.6395 62.267275,111.7747 L111.779275,62.2707 C114.644075,59.4045 114.644075,54.7571 111.779275,51.8917" id="Path"></path>
        </g>
    </g>
</svg>