<?xml version="1.0" encoding="UTF-8"?>
<svg width="52px" height="52px" viewBox="0 0 52 52" version="1.1" xmlns="http://www.w3.org/2000/svg" xmlns:xlink="http://www.w3.org/1999/xlink">
    <title>Slice 1</title>
    <g id="Page-1" stroke="none" stroke-width="1" fill="none" fill-rule="evenodd">
        <g id="objective-c-seeklogo.com" transform="translate(0.874840, 0.875270)" fill="#F1592A" fill-rule="nonzero">
            <path d="M25.0563001,50.2494493 C11.5551774,50.2494493 0.105857023,38.8461629 0.000636387794,25.2595484 C-0.0467902613,18.6392677 2.55836225,12.2755906 7.23455506,7.589058 C11.9415923,2.76810307 18.3843627,0.0346629974 25.122063,9.82901577e-06 L25.122063,9.82901577e-06 C31.7374478,-0.00587260495 38.0815787,2.6288355 42.7465194,7.31943013 C47.4893668,11.9427708 50.1904195,18.2681106 50.2503247,24.8912762 C50.3122776,38.7784629 39.1467759,50.1085087 25.2601651,50.2494493 L25.0563001,50.2494493 Z M25.1352156,1.31524669 C18.7504922,1.35268412 12.6468372,3.94620458 8.18811706,8.51631485 C3.75313806,12.9501888 1.27820745,18.975283 1.31547014,25.2463958 C1.41453867,38.1227711 12.2654167,48.9210388 25.0497239,48.9210388 L25.2207074,48.9210388 C38.3886417,48.801721 48.9860105,38.0662279 48.9349928,24.8978525 C48.8751819,18.6232492 46.3138895,12.6319081 41.8192626,8.25326326 C37.4087247,3.80366929 31.4003276,1.30510449 25.1352156,1.31524669 Z" id="path8"></path>
            <polygon id="path10" points="5.63651666 32.4737382 5.63651666 17.7954596 9.20744197 17.7954596 9.20744197 19.1107176 7.31347053 19.1107176 7.31347053 31.1847854 9.20744197 31.1847854 9.20744197 32.5000434"></polygon>
            <path d="M17.7566186,24.9899206 C17.7566186,27.6664705 16.132275,29.1921697 13.929218,29.1921697 C11.7261609,29.1921697 10.2596483,27.4757581 10.2596483,25.1280226 C10.2596483,22.6750666 11.7985001,20.9455024 14.0475912,20.9455024 C16.2966823,20.9455024 17.7566186,22.7474058 17.7566186,24.9899206 Z M11.7985001,25.1082938 C11.7985001,26.7326373 12.61396,28.0215901 14.0147097,28.0215901 C15.4154594,28.0215901 16.2177668,26.7063322 16.2177668,25.0491072 C16.2177668,23.5431368 15.4746461,22.1226582 14.0147097,22.1226582 C12.5547734,22.1226582 11.7853475,23.4971028 11.7853475,25.1411752 L11.7985001,25.1082938 Z" id="path12"></path>
            <path d="M18.992961,21.2217066 C19.6922948,21.1009379 20.4008462,21.0415252 21.1105263,21.0441467 C21.9077542,20.9662816 22.7091145,21.1435941 23.3990751,21.550521 C23.925834,21.8607727 24.2430114,22.4321955 24.2276876,23.0433388 C24.2082806,23.8432258 23.6780502,24.5404787 22.9124297,24.772903 L22.9124297,24.772903 C23.8503242,24.9636982 24.5240639,25.7886855 24.5236207,26.7457899 C24.5336885,27.3829919 24.249906,27.9893649 23.7541948,28.3898623 C23.1886339,28.8896603 22.2482244,29.1329831 20.7948644,29.1329831 C20.1969849,29.1359239 19.5995251,29.1007792 19.0061136,29.0277624 L18.992961,21.2217066 Z M20.4397448,24.3717493 L21.1828655,24.3717493 C22.1890378,24.3717493 22.7545987,23.8982565 22.7545987,23.2208986 C22.7545987,22.5435408 22.1890378,22.1292345 21.261781,22.1292345 C20.9842637,22.1197521 20.7065206,22.1395909 20.4331685,22.1884211 L20.4397448,24.3717493 Z M20.4397448,28.041319 C20.6953296,28.067686 20.9522682,28.0786663 21.2091707,28.0742004 C22.1430038,28.0742004 22.9716163,27.7190808 22.9716163,26.7589425 C22.9716163,25.7988042 22.169309,25.4436845 21.1631366,25.4436845 L20.4397448,25.4436845 L20.4397448,28.041319 Z" id="path14"></path>
            <path d="M27.3974593,21.1164859 L28.8508193,21.1164859 L28.8508193,26.3051785 C28.8508193,28.5082355 27.7854604,29.24478 26.2203034,29.24478 C25.8017236,29.2413149 25.3864521,29.1702524 24.9905372,29.0343387 L25.1680971,27.8637591 C25.4599278,27.9549174 25.7633495,28.0036421 26.0690488,28.0084375 C26.8976613,28.0084375 27.3843067,27.6270127 27.3843067,26.2459919 L27.3974593,21.1164859 Z" id="path16"></path>
            <polygon id="path18" points="32.9873055 25.4371083 32.9873055 26.4432806 29.9622123 26.4432806 29.9622123 25.4371083"></polygon>
            <path d="M40.0502407,28.8567789 C39.3964087,29.1174782 38.6952507,29.2384448 37.991862,29.2118985 C35.4599905,29.2118985 33.9211387,27.6270127 33.9211387,25.2003618 C33.8606138,24.0567459 34.2917542,22.9417855 35.1059301,22.1364046 C35.9201061,21.3310238 37.0396832,20.9120183 38.1825744,20.9849601 C38.8583053,20.9569725 39.5319029,21.0782201 40.1554613,21.3400798 L39.8332231,22.4975068 C39.3386038,22.286988 38.8055805,22.1817271 38.2680662,22.1884211 C36.6437226,22.1884211 35.473143,23.207746 35.473143,25.1280226 C35.473143,26.8773157 36.5056205,28.0084375 38.2549136,28.0084375 C38.7976403,28.0162691 39.3364682,27.915658 39.8397994,27.7125045 L40.0502407,28.8567789 Z" id="path20"></path>
            <polygon id="path22" points="44.6141857 17.7560019 44.6141857 32.4737382 41.0432604 32.4737382 41.0432604 31.1584803 42.9372318 31.1584803 42.9372318 19.0712598 41.0432604 19.0712598 41.0432604 17.7560019"></polygon>
        </g>
    </g>
</svg>